<?xml version="1.0" standalone="no"?>
<!DOCTYPE svg PUBLIC "-//W3C//DTD SVG 20010904//EN"
 "http://www.w3.org/TR/2001/REC-SVG-20010904/DTD/svg10.dtd">
<svg version="1.0" xmlns="http://www.w3.org/2000/svg"
 width="500.000000pt" height="500.000000pt" viewBox="0 0 500.000000 500.000000"
 preserveAspectRatio="xMidYMid meet">
<metadata>
Created by potrace 1.14, written by Peter Selinger 2001-2017
</metadata>
<g transform="translate(0.000000,500.000000) scale(0.100000,-0.100000)"
fill="#000000" stroke="none">
<path d="M2340 3637 c-3 -3 -43 -8 -90 -11 -75 -6 -132 -14 -220 -31 -99 -19
-149 -31 -247 -61 -691 -209 -1239 -680 -1553 -1337 -60 -126 -133 -317 -124
-326 9 -10 23 17 52 99 169 487 528 942 979 1241 219 145 547 288 768 335 69
15 278 53 320 59 79 10 414 14 485 5 36 -4 92 -11 125 -15 168 -19 401 -80
576 -150 671 -270 1171 -784 1429 -1469 21 -55 44 -102 50 -104 14 -5 11 6
-37 138 -177 481 -521 913 -956 1204 -256 171 -533 291 -827 360 -111 26 -126
28 -290 50 -100 12 -430 22 -440 13z"/>
<path d="M2457 3474 c-1 -1 -49 -4 -107 -8 -479 -29 -943 -209 -1320 -513 -82
-66 -227 -204 -303 -290 -156 -176 -316 -441 -407 -673 -43 -111 -45 -120 -31
-120 5 0 28 48 51 108 169 435 485 823 888 1092 113 75 330 184 467 235 99 37
323 98 400 108 22 4 74 12 115 19 118 19 503 16 620 -5 52 -10 109 -20 125
-23 238 -39 581 -178 805 -326 182 -121 245 -173 389 -317 227 -230 396 -489
516 -793 21 -54 42 -98 47 -98 14 0 9 20 -28 114 -213 535 -605 969 -1104
1223 -251 127 -439 190 -699 232 -130 22 -411 44 -424 35z"/>
<path d="M2345 3299 c-166 -14 -197 -19 -312 -45 -224 -50 -411 -121 -606
-232 -405 -228 -746 -609 -927 -1033 -22 -51 -40 -99 -40 -106 0 -28 18 -11
35 35 31 83 135 284 192 372 117 178 244 327 383 449 107 93 121 103 248 188
283 188 622 309 972 348 117 13 402 7 492 -10 11 -2 41 -7 66 -10 26 -3 54 -7
62 -10 8 -2 26 -6 40 -9 203 -35 507 -160 715 -294 356 -228 661 -589 816
-964 41 -100 59 -129 59 -94 0 8 -16 52 -36 97 -281 658 -901 1158 -1594 1288
-173 32 -398 44 -565 30z"/>
<path d="M2339 3136 c-2 -2 -31 -7 -64 -10 -33 -3 -71 -8 -85 -11 -14 -3 -50
-9 -81 -15 -99 -18 -296 -79 -403 -125 -428 -183 -792 -527 -1005 -952 -51
-101 -70 -153 -55 -153 5 0 33 52 63 116 243 518 730 920 1289 1063 64 16 137
33 162 36 25 4 54 9 65 11 90 17 315 22 450 10 686 -60 1307 -483 1603 -1091
69 -143 67 -138 80 -143 17 -5 -2 43 -64 165 -183 361 -495 678 -855 871 -161
86 -412 170 -594 201 -33 5 -76 13 -95 16 -39 7 -405 17 -411 11z"/>
<path d="M2270 2960 c-25 -4 -61 -10 -81 -14 -289 -46 -615 -195 -854 -389
-119 -97 -276 -269 -363 -398 -45 -67 -152 -261 -152 -276 0 -28 17 -10 45 45
186 372 490 672 861 847 161 77 363 136 544 160 79 11 332 13 416 4 284 -30
569 -130 805 -284 272 -177 503 -436 640 -717 30 -62 49 -84 49 -58 0 38 -145
278 -238 395 -300 375 -695 601 -1187 679 -96 15 -406 19 -485 6z"/>
<path d="M2437 2804 c-1 -1 -36 -4 -77 -8 -275 -23 -552 -119 -785 -271 -218
-142 -415 -357 -549 -599 -15 -26 -24 -51 -20 -55 8 -7 23 14 76 104 89 151
244 330 383 442 119 96 304 202 450 256 84 32 243 75 305 83 25 3 65 10 90 14
25 5 113 9 195 8 582 0 1119 -307 1420 -812 32 -53 62 -96 67 -96 14 0 4 23
-54 120 -292 487 -826 801 -1387 813 -62 1 -113 1 -114 1z"/>
<path d="M2318 2624 c-421 -55 -773 -260 -1028 -599 -72 -96 -106 -155 -91
-155 6 0 38 42 73 93 84 125 275 315 397 396 178 118 370 198 541 226 19 3 46
7 60 10 77 14 106 16 225 17 122 0 152 -2 250 -18 395 -60 767 -304 999 -652
41 -62 66 -87 66 -66 0 13 -92 146 -145 210 -139 167 -297 292 -490 388 -111
56 -271 113 -364 131 -148 29 -356 37 -493 19z"/>
</g>
</svg>
